<svg width="36" height="36" viewBox="0 0 36 36" fill="none" xmlns="http://www.w3.org/2000/svg">
<g id="flash">
<g id="Group">
<path id="flash_icon" fill-rule="evenodd" clip-rule="evenodd" d="M19.848 2.04003C20.796 0.903028 22.6425 1.68003 22.4925 3.15303L21.4335 13.5H30C30.285 13.5001 30.5641 13.5814 30.8046 13.7344C31.0451 13.8874 31.237 14.1058 31.3579 14.3639C31.4787 14.622 31.5236 14.9092 31.4871 15.1919C31.4506 15.4746 31.3344 15.741 31.152 15.96L16.152 33.96C15.204 35.097 13.3575 34.32 13.5075 32.847L14.5665 22.5H5.99999C5.71497 22.4999 5.43587 22.4186 5.19539 22.2656C4.95491 22.1126 4.763 21.8943 4.64212 21.6362C4.52125 21.378 4.47641 21.0908 4.51287 20.8082C4.54933 20.5255 4.66557 20.259 4.84799 20.04L19.848 2.04003Z" fill="white"/>
</g>
</g>
</svg>
