<svg width="16" height="16" viewBox="0 0 16 16" fill="none" xmlns="http://www.w3.org/2000/svg">
<g id="Group">
<g id="Layer_90">
<path id="Shape" fill-rule="evenodd" clip-rule="evenodd" d="M15.5 13.25V2.75C15.5 1.50736 14.4926 0.5 13.25 0.5H2.75C1.50736 0.5 0.5 1.50736 0.5 2.75V13.25C0.5 14.4926 1.50736 15.5 2.75 15.5H13.25C14.4926 15.5 15.5 14.4926 15.5 13.25ZM7.24572 4.25003C7.24572 4.45001 7.32558 4.6417 7.46757 4.78253C7.68213 4.99887 8.00627 5.0639 8.28768 4.94706C8.56909 4.83021 8.75184 4.55473 8.75007 4.25003C8.75184 3.94533 8.56909 3.66984 8.28768 3.553C8.00627 3.43616 7.68213 3.50118 7.46757 3.71753C7.32558 3.85835 7.24572 4.05005 7.24572 4.25003ZM14.0001 2.75012C14.0001 2.3359 13.6643 2.00012 13.2501 2.00012H2.75012C2.3359 2.00012 2.00012 2.3359 2.00012 2.75012V13.2501C2.00012 13.6643 2.3359 14.0001 2.75012 14.0001H13.2501C13.6643 14.0001 14.0001 13.6643 14.0001 13.2501V2.75012ZM8.75011 11H8.85511C9.26933 11 9.60511 11.3358 9.60511 11.75C9.60511 12.1643 9.26933 12.5 8.85511 12.5H7.14511C6.7309 12.5 6.39511 12.1643 6.39511 11.75C6.39511 11.3358 6.7309 11 7.14511 11H7.25011V7.25005C6.8359 7.25005 6.50011 6.91426 6.50011 6.50005C6.50011 6.08583 6.8359 5.75005 7.25011 5.75005H8.00011C8.41433 5.75005 8.75011 6.08583 8.75011 6.50005V11Z" fill="#324053"/>
</g>
</g>
</svg>
