<svg width="20" height="18" viewBox="0 0 20 18" fill="none" xmlns="http://www.w3.org/2000/svg">
<path d="M17.6165 18L10.9898 11.7C10.4639 12.1 9.85909 12.4167 9.17539 12.65C8.49169 12.8833 7.76416 13 6.9928 13C5.08193 13 3.46489 12.3707 2.14166 11.112C0.818429 9.85333 0.156464 8.316 0.155762 6.5C0.155061 4.684 0.817026 3.14667 2.14166 1.888C3.46629 0.629333 5.08334 0 6.9928 0C8.90226 0 10.5197 0.629333 11.845 1.888C13.1703 3.14667 13.8319 4.684 13.8298 6.5C13.8298 7.23333 13.7071 7.925 13.4617 8.575C13.2163 9.225 12.8832 9.8 12.4624 10.3L19.0891 16.6L17.6165 18ZM6.9928 11C8.30761 11 9.42538 10.5627 10.3461 9.688C11.2668 8.81333 11.7268 7.75067 11.7261 6.5C11.7254 5.24933 11.2654 4.187 10.3461 3.313C9.42678 2.439 8.30902 2.00133 6.9928 2C5.67658 1.99867 4.55916 2.43633 3.64055 3.313C2.72193 4.18967 2.26157 5.252 2.25947 6.5C2.25736 7.748 2.71772 8.81067 3.64055 9.688C4.56337 10.5653 5.68079 11.0027 6.9928 11Z" fill="black" fill-opacity="0.5"/>
</svg>
